<?xml version="1.0" encoding="utf-8"?>
<!-- Generator: Adobe Illustrator 22.0.1, SVG Export Plug-In . SVG Version: 6.00 Build 0)  -->
<svg version="1.1" id="Layer_1" xmlns="http://www.w3.org/2000/svg" xmlns:xlink="http://www.w3.org/1999/xlink" x="0px" y="0px"
	 viewBox="0 0 218 77" style="enable-background:new 0 0 218 77;" xml:space="preserve">
<style type="text/css">
	.st0{fill:#0097A7;}
	.st1{fill:#045C65;}
	.st2{fill:#40B1BD;}
	.st3{fill:#BFE5E9;}
	.st4{fill:#1E1E1E;}
</style>
<title>logo</title>
<desc>Created with Sketch.</desc>
<g id="Symbols">
	<g id="Ikoner" transform="translate(-148.000000, -140.000000)">
	</g>
	<g id="logo">
		<polygon id="Fill-1" class="st0" points="0,51.3 0,64.2 11.1,57.7 22.2,51.3 11.1,44.9 0,38.5 		"/>
		<polygon id="Fill-2" class="st1" points="0,64.2 22.2,77 44.4,64.2 33.3,57.7 22.2,51.3 		"/>
		<polygon id="Fill-3" class="st2" points="0,38.5 22.2,51.3 44.4,38.5 33.3,32.1 22.2,25.7 		"/>
		<polygon id="Fill-4" class="st3" points="22.2,0 22.2,25.7 44.4,38.5 44.4,25.7 44.4,12.8 		"/>
		<path id="Fill-5" class="st4" d="M70.5,48.5h-1.9h-1.3c-0.2,0-0.4-0.1-0.6-0.3c-0.2-0.2-0.2-0.4-0.2-0.6V31.3
			c0-0.2,0.1-0.4,0.2-0.6c0.2-0.2,0.4-0.3,0.6-0.3h1.3h1.9c0.5,0,1,0.1,1.4,0.3c0.5,0.2,0.9,0.4,1.3,0.8c0.4,0.4,0.7,0.8,0.9,1.4
			c0.2,0.6,0.4,1.2,0.4,1.9v9.3c0,0.8-0.1,1.4-0.4,2c-0.2,0.5-0.5,1-0.9,1.4c-0.4,0.4-0.8,0.6-1.3,0.8C71.5,48.4,71,48.5,70.5,48.5
			L70.5,48.5z M68.2,46.7h0.5h1.9c0.6,0,1.1-0.2,1.5-0.6c0.5-0.5,0.8-1.2,0.8-2.1v-9.3c0-0.9-0.3-1.6-0.8-2.1
			c-0.4-0.4-0.9-0.6-1.5-0.6h-1.9h-0.5V46.7z"/>
		<path id="Fill-7" class="st4" d="M100.5,30.7c0.2,0.2,0.3,0.4,0.3,0.6c0,0.2-0.1,0.4-0.3,0.6c-0.2,0.2-0.4,0.3-0.6,0.3H97v15.5
			c0,0.2-0.1,0.4-0.2,0.6c-0.2,0.2-0.4,0.2-0.6,0.2c-0.2,0-0.4-0.1-0.6-0.2c-0.2-0.2-0.3-0.4-0.3-0.6V32.1h-3
			c-0.2,0-0.4-0.1-0.6-0.3c-0.2-0.2-0.3-0.4-0.3-0.6c0-0.2,0.1-0.4,0.3-0.6c0.2-0.2,0.4-0.3,0.6-0.3h7.6
			C100.2,30.4,100.4,30.5,100.5,30.7"/>
		<path id="Fill-9" class="st4" d="M125.5,30.7c0.2,0.2,0.3,0.4,0.3,0.6c0,0.2-0.1,0.4-0.3,0.6c-0.2,0.2-0.4,0.3-0.6,0.3h-5v6.4h3.6
			c0.2,0,0.4,0.1,0.6,0.3c0.2,0.2,0.2,0.4,0.2,0.6c0,0.2-0.1,0.4-0.2,0.6c-0.2,0.2-0.4,0.3-0.6,0.3h-3.6v7.4c0,0.2-0.1,0.4-0.3,0.6
			c-0.2,0.2-0.4,0.3-0.6,0.3c-0.2,0-0.4-0.1-0.6-0.3c-0.2-0.2-0.3-0.4-0.3-0.6V31.3c0-0.2,0.1-0.4,0.3-0.6c0.2-0.2,0.4-0.3,0.6-0.3
			h5.8C125.1,30.4,125.3,30.5,125.5,30.7"/>
		<path id="Fill-11" class="st4" d="M136.1,44.4c0,0.6-0.1,1.1-0.3,1.4c-0.2,0.3-0.4,0.6-0.7,0.8c-0.3,0.2-0.5,0.3-0.8,0.3
			c-0.3,0.1-0.5,0.1-0.6,0.1c-0.6,0-1.1-0.2-1.5-0.6c-0.5-0.5-0.8-1.2-0.8-2.1v-9.8c0-0.9,0.3-1.6,0.8-2.1c0.4-0.4,0.9-0.6,1.5-0.6
			c0.1,0,0.3,0,0.6,0.1c0.3,0,0.5,0.2,0.8,0.3c0.3,0.2,0.5,0.4,0.7,0.8c0.2,0.3,0.3,0.8,0.3,1.4V44.4z M137.7,33.4
			c-0.1-0.4-0.2-0.7-0.3-1c-0.1-0.3-0.3-0.5-0.4-0.7c-0.2-0.2-0.3-0.4-0.5-0.5c-0.5-0.4-1-0.7-1.5-0.8c-0.5-0.1-0.9-0.2-1.2-0.2
			c-0.5,0-1,0.1-1.4,0.3c-0.5,0.2-0.9,0.4-1.3,0.8c-0.4,0.4-0.7,0.8-0.9,1.4c-0.2,0.6-0.4,1.2-0.4,1.9v9.8c0,0.7,0.1,1.4,0.4,1.9
			c0.2,0.5,0.5,1,0.9,1.4c0.4,0.4,0.8,0.6,1.3,0.8c0.5,0.2,0.9,0.3,1.4,0.3c0.3,0,0.7-0.1,1.2-0.2c0.5-0.1,1-0.4,1.5-0.8
			c0.2-0.1,0.3-0.3,0.5-0.5c0.2-0.2,0.3-0.4,0.4-0.7c0.1-0.3,0.2-0.6,0.3-1c0.1-0.4,0.1-0.8,0.1-1.2v-9.8
			C137.8,34.1,137.7,33.7,137.7,33.4L137.7,33.4z"/>
		<path id="Fill-13" class="st4" d="M161.4,48.5h-1.9h-1.3c-0.2,0-0.4-0.1-0.6-0.3c-0.2-0.2-0.2-0.4-0.2-0.6V31.3
			c0-0.2,0.1-0.4,0.2-0.6c0.2-0.2,0.4-0.3,0.6-0.3h1.3h1.9c0.5,0,1,0.1,1.4,0.3c0.5,0.2,0.9,0.4,1.3,0.8c0.4,0.4,0.7,0.8,0.9,1.4
			c0.2,0.6,0.4,1.2,0.4,1.9v9.3c0,0.8-0.1,1.4-0.4,2c-0.2,0.5-0.5,1-0.9,1.4c-0.4,0.4-0.8,0.6-1.3,0.8
			C162.4,48.4,161.9,48.5,161.4,48.5L161.4,48.5z M159,46.7h0.5h1.9c0.6,0,1.1-0.2,1.5-0.6c0.5-0.5,0.8-1.2,0.8-2.1v-9.3
			c0-0.9-0.3-1.6-0.8-2.1c-0.4-0.4-0.9-0.6-1.5-0.6h-1.9H159V46.7z"/>
		<path id="Fill-15" class="st4" d="M147.6,32.1c0.6,0,1.1,0.2,1.5,0.6c0.5,0.5,0.8,1.2,0.8,2.1v0h0v1c0,0.9-0.3,1.6-0.8,2.1
			c-0.4,0.4-0.9,0.6-1.5,0.6h-2.4v-6.4H147.6z M152.2,47.3l-3-7.5c0.4-0.2,0.7-0.4,1-0.7c0.4-0.4,0.7-0.8,0.9-1.4
			c0.2-0.5,0.4-1.2,0.4-1.9v0l0,0v-1c0-0.7-0.1-1.4-0.4-1.9c-0.2-0.5-0.5-1-0.9-1.4c-0.4-0.4-0.8-0.6-1.3-0.8
			c-0.5-0.2-0.9-0.3-1.4-0.3h-3.2c-0.2,0-0.4,0.1-0.6,0.3c-0.2,0.2-0.2,0.4-0.2,0.6v15.8c0,0.8,0.1,1,0.3,1.1
			c0.2,0.2,0.4,0.2,0.6,0.2c0.2,0,0.4-0.1,0.6-0.2c0.2-0.2,0.3-0.4,0.3-0.6v-7.4l2.3,0l3.1,7.7c0.1,0.2,0.2,0.3,0.3,0.4
			c0.1,0.1,0.3,0.1,0.5,0.1c0,0,0.1,0,0.2,0c0.1,0,0.1,0,0.2-0.1c0.2-0.1,0.4-0.2,0.5-0.4C152.4,47.7,152.3,47.5,152.2,47.3
			L152.2,47.3z"/>
		<path id="Fill-17" class="st4" d="M212.7,32.1c0.6,0,1.1,0.2,1.5,0.6c0.5,0.5,0.8,1.2,0.8,2.1v0h0v1c0,0.9-0.3,1.6-0.8,2.1
			c-0.4,0.4-0.9,0.6-1.5,0.6h-2.4v-6.4H212.7z M217.4,47.3l-3-7.5c0.4-0.2,0.7-0.4,1-0.7c0.4-0.4,0.7-0.8,0.9-1.4
			c0.2-0.5,0.4-1.2,0.4-1.9v0l0,0v-1c0-0.7-0.1-1.4-0.4-1.9c-0.2-0.5-0.5-1-0.9-1.4c-0.4-0.4-0.8-0.6-1.3-0.8
			c-0.5-0.2-0.9-0.3-1.4-0.3h-3.2c-0.2,0-0.4,0.1-0.6,0.3c-0.2,0.2-0.2,0.4-0.2,0.6v15.8c0,0.8,0.1,1,0.3,1.1
			c0.2,0.2,0.4,0.2,0.6,0.2c0.2,0,0.4-0.1,0.6-0.2c0.2-0.2,0.3-0.4,0.3-0.6v-7.4l2.3,0l3.1,7.7c0.1,0.2,0.2,0.3,0.3,0.4
			c0.1,0.1,0.3,0.1,0.5,0.1c0,0,0.1,0,0.2,0c0.1,0,0.1,0,0.2-0.1c0.2-0.1,0.4-0.2,0.5-0.4C217.5,47.7,217.5,47.5,217.4,47.3
			L217.4,47.3z"/>
		<path id="Fill-19" class="st4" d="M179.1,47c0.2,0.2,0.3,0.4,0.3,0.6c0,0.2-0.1,0.4-0.3,0.6c-0.2,0.2-0.4,0.3-0.6,0.3h-6.4
			c-0.2,0-0.4-0.1-0.6-0.3c-0.2-0.2-0.3-0.4-0.3-0.6V31.3c0-0.2,0.1-0.4,0.3-0.6c0.2-0.2,0.4-0.3,0.6-0.3h6.4c0.2,0,0.4,0.1,0.6,0.3
			c0.2,0.2,0.3,0.4,0.3,0.6c0,0.2-0.1,0.4-0.3,0.6c-0.2,0.2-0.4,0.3-0.6,0.3h-5.6v6.4h4.2c0.2,0,0.4,0.1,0.6,0.3
			c0.2,0.2,0.2,0.4,0.2,0.6c0,0.2-0.1,0.4-0.2,0.6c-0.2,0.2-0.4,0.3-0.6,0.3h-4.2v6.5h5.6C178.7,46.7,178.9,46.8,179.1,47"/>
		<path id="Fill-21" class="st4" d="M191.7,48.5h-6.5c-0.2,0-0.4-0.1-0.6-0.3c-0.2-0.2-0.3-0.4-0.3-0.6V31.3c0-0.2,0.1-0.4,0.3-0.6
			s0.4-0.3,0.6-0.3c0.2,0,0.4,0.1,0.6,0.3c0.2,0.2,0.2,0.4,0.2,0.6v15.5h5.6c0.2,0,0.4,0.1,0.6,0.3c0.2,0.2,0.3,0.4,0.3,0.6
			c0,0.2-0.1,0.4-0.3,0.6C192.1,48.4,191.9,48.5,191.7,48.5"/>
		<path id="Fill-23" class="st4" d="M203.5,47c0.2,0.2,0.3,0.4,0.3,0.6c0,0.2-0.1,0.4-0.3,0.6c-0.2,0.2-0.4,0.3-0.6,0.3h-6.4
			c-0.2,0-0.4-0.1-0.6-0.3c-0.2-0.2-0.3-0.4-0.3-0.6V31.3c0-0.2,0.1-0.4,0.3-0.6c0.2-0.2,0.4-0.3,0.6-0.3h6.4c0.2,0,0.4,0.1,0.6,0.3
			c0.2,0.2,0.3,0.4,0.3,0.6c0,0.2-0.1,0.4-0.3,0.6c-0.2,0.2-0.4,0.3-0.6,0.3h-5.6v6.4h4.2c0.2,0,0.4,0.1,0.6,0.3
			c0.2,0.2,0.2,0.4,0.2,0.6c0,0.2-0.1,0.4-0.2,0.6c-0.2,0.2-0.4,0.3-0.6,0.3h-4.2v6.5h5.6C203.1,46.7,203.3,46.8,203.5,47"/>
		<path id="Fill-25" class="st4" d="M81.8,39.4v-4.8c0-0.9,0.3-1.6,0.8-2.1c0.4-0.4,0.9-0.6,1.5-0.6c0.1,0,0.3,0,0.6,0.1
			c0.3,0,0.5,0.2,0.8,0.3c0.3,0.2,0.5,0.4,0.7,0.8c0.2,0.3,0.3,0.8,0.3,1.4v4.8H81.8z M88.1,34.6c0-0.5,0-0.9-0.1-1.2
			c-0.1-0.4-0.2-0.7-0.3-1c-0.1-0.3-0.3-0.5-0.4-0.7c-0.2-0.2-0.3-0.4-0.5-0.5c-0.5-0.4-1-0.7-1.5-0.8c-0.5-0.1-0.9-0.2-1.2-0.2
			c-0.5,0-1,0.1-1.4,0.3c-0.5,0.2-0.9,0.4-1.3,0.8c-0.4,0.4-0.7,0.8-0.9,1.4c-0.2,0.5-0.4,1.2-0.4,1.9v13c0,0.2,0.1,0.4,0.3,0.6
			c0.2,0.2,0.4,0.2,0.6,0.2c0.2,0,0.4-0.1,0.6-0.2c0.2-0.2,0.2-0.4,0.2-0.6v-6.5h4.6v6.5c0,0.2,0.1,0.4,0.3,0.6
			c0.2,0.2,0.4,0.2,0.6,0.2c0.2,0,0.4-0.1,0.6-0.2c0.2-0.2,0.2-0.4,0.2-0.6V34.6z"/>
		<path id="Fill-27" class="st4" d="M106,39.4v-4.8c0-0.9,0.3-1.6,0.8-2.1c0.4-0.4,0.9-0.6,1.5-0.6c0.1,0,0.3,0,0.6,0.1
			c0.3,0,0.5,0.2,0.8,0.3c0.3,0.2,0.5,0.4,0.7,0.8c0.2,0.3,0.3,0.8,0.3,1.4v4.8H106z M112.3,34.6c0-0.5,0-0.9-0.1-1.2
			c-0.1-0.4-0.2-0.7-0.3-1c-0.1-0.3-0.3-0.5-0.4-0.7c-0.2-0.2-0.3-0.4-0.5-0.5c-0.5-0.4-1-0.7-1.5-0.8c-0.5-0.1-0.9-0.2-1.2-0.2
			c-0.5,0-1,0.1-1.4,0.3c-0.5,0.2-0.9,0.4-1.3,0.8c-0.4,0.4-0.7,0.8-0.9,1.4c-0.2,0.5-0.4,1.2-0.4,1.9v13c0,0.2,0.1,0.4,0.3,0.6
			c0.2,0.2,0.4,0.2,0.6,0.2c0.2,0,0.4-0.1,0.6-0.2c0.2-0.2,0.2-0.4,0.2-0.6v-6.5h4.6v6.5c0,0.2,0.1,0.4,0.3,0.6
			c0.2,0.2,0.4,0.2,0.6,0.2c0.2,0,0.4-0.1,0.6-0.2c0.2-0.2,0.2-0.4,0.2-0.6V34.6z"/>
	</g>
</g>
</svg>
